0
SECTION
2
HEADER
9
$INSUNITS
70
4
9
$ACADVER
1
AC1014
9
$HANDSEED
5
FFFF
0
ENDSEC
0
SECTION
2
TABLES
0
TABLE
2
VPORT
5
8
100
AcDbSymbolTable
0
ENDTAB
0
TABLE
2
LTYPE
5
5
100
AcDbSymbolTable
0
LTYPE
5
14
100
AcDbSymbolTableRecord
100
AcDbLinetypeTableRecord
2
BYBLOCK
70
0
0
LTYPE
5
15
100
AcDbSymbolTableRecord
100
AcDbLinetypeTableRecord
2
BYLAYER
70
0
0
ENDTAB
0
TABLE
2
LAYER
5
2
100
AcDbSymbolTable
70
2
0
LAYER
5
50
100
AcDbSymbolTableRecord
100
AcDbLayerTableRecord
2
0
70
0
6
CONTINUOUS
0
ENDTAB
0
TABLE
2
STYLE
5
3
100
AcDbSymbolTable
70
1
0
STYLE
5
11
100
AcDbSymbolTableRecord
100
AcDbTextStyleTableRecord
2
STANDARD
70
0
0
ENDTAB
0
TABLE
2
VIEW
5
6
100
AcDbSymbolTable
70
0
0
ENDTAB
0
TABLE
2
UCS
5
7
100
AcDbSymbolTable
70
0
0
ENDTAB
0
TABLE
2
APPID
5
9
100
AcDbSymbolTable
70
2
0
APPID
5
12
100
AcDbSymbolTableRecord
100
AcDbRegAppTableRecord
2
ACAD
70
0
0
ENDTAB
0
TABLE
2
DIMSTYLE
5
A
100
AcDbSymbolTable
70
1
0
ENDTAB
0
TABLE
2
BLOCK_RECORD
5
1
100
AcDbSymbolTable
70
1
0
BLOCK_RECORD
5
1F
100
AcDbSymbolTableRecord
100
AcDbBlockTableRecord
2
*MODEL_SPACE
0
BLOCK_RECORD
5
1B
100
AcDbSymbolTableRecord
100
AcDbBlockTableRecord
2
*PAPER_SPACE
0
ENDTAB
0
ENDSEC
0
SECTION
2
BLOCKS
0
BLOCK
5
20
100
AcDbEntity
100
AcDbBlockBegin
2
*MODEL_SPACE
0
ENDBLK
5
21
100
AcDbEntity
100
AcDbBlockEnd
0
BLOCK
5
1C
100
AcDbEntity
100
AcDbBlockBegin
2
*PAPER_SPACE
0
ENDBLK
5
1D
100
AcDbEntity
100
AcDbBlockEnd
0
ENDSEC
0
SECTION
2
ENTITIES
0
LWPOLYLINE
5
100
100
AcDbEntity
8
0
100
AcDbPolyline
90
8
70
1
43
0.0
10
10.043832423028732
20
43.293996581815676
10
10.043832423028732
20
-64.706003418184338
42
-0.41421356237309209
10
8.0438324230287321
20
-66.706003418184338
10
2.0438324230287308
20
-66.706003418184338
42
-0.41421356237309209
10
0.043832423028731249
20
-64.706003418184338
10
0.043832423028733469
20
43.293996581815662
42
-0.41421356237309315
10
2.0438324230287312
20
45.293996581815676
10
8.0438324230287321
20
45.293996581815676
42
-0.41421356237309209
0
CIRCLE
5
101
100
AcDbEntity
8
0
100
AcDbCircle
10
5.0438324230287339
20
-61.456003418184352
30
0
40
1.5000000000000002
210
0
220
0
230
1
0
CIRCLE
5
102
100
AcDbEntity
8
0
100
AcDbCircle
10
5.0438324230287339
20
-53.456003418184338
30
0
40
1.5000000000000002
210
0
220
0
230
1
0
CIRCLE
5
103
100
AcDbEntity
8
0
100
AcDbCircle
10
32.029146683317947
20
-15.369503745501973
30
0
40
1.5000000000000002
210
0
220
0
230
1
0
CIRCLE
5
104
100
AcDbEntity
8
0
100
AcDbCircle
10
32.029146683317968
20
-23.369503745501877
30
0
40
1.5000000000000002
210
0
220
0
230
1
0
CIRCLE
5
105
100
AcDbEntity
8
0
100
AcDbCircle
10
132.0291466833184
20
-23.369503745501866
30
0
40
1.5000000000000002
210
0
220
0
230
1
0
CIRCLE
5
106
100
AcDbEntity
8
0
100
AcDbCircle
10
132.0291466833184
20
-15.369503745502019
30
0
40
1.5000000000000002
210
0
220
0
230
1
0
LWPOLYLINE
5
107
100
AcDbEntity
8
0
100
AcDbPolyline
90
16
70
1
43
0.0
10
122.02914668331789
20
-38.369503745501873
10
147.02914668331789
20
-38.369503745501873
10
147.02914668331789
20
-18.369503745501873
10
122.02914668331789
20
1.6304962544981283
10
109.52914668331789
20
1.6304962544981283
10
109.52914668331789
20
18.63049625449813
42
0.41421356237309503
10
106.52914668331789
20
21.630496254498127
10
57.529146683317904
20
21.630496254498123
42
0.41421356237309892
10
54.529146683317897
20
18.63049625449813
10
54.529146683317897
20
1.6304962544981283
10
42.029146683317897
20
1.6304962544981283
10
17.029146683317897
20
-18.369503745501873
10
17.029146683317897
20
-38.369503745501859
10
42.029146683317897
20
-38.369503745501859
10
42.029146683317897
20
-73.369503745501859
10
122.02914668331789
20
-73.369503745501873
0
LWPOLYLINE
5
108
100
AcDbEntity
8
0
100
AcDbPolyline
90
4
70
1
43
0.0
10
127.02914668331789
20
-33.369503745501873
10
127.02914668331789
20
-30.069503745501869
10
142.02914668331789
20
-30.069503745501869
10
142.02914668331789
20
-33.369503745501873
0
LWPOLYLINE
5
109
100
AcDbEntity
8
0
100
AcDbPolyline
90
4
70
1
43
0.0
10
127.02914668331789
20
-30.069503745501869
10
142.02914668331789
20
-30.069503745501869
10
142.02914668331789
20
-33.369503745501873
10
127.02914668331789
20
-33.369503745501873
0
LWPOLYLINE
5
110
100
AcDbEntity
8
0
100
AcDbPolyline
90
4
70
1
43
0.0
10
22.029147130352733
20
-30.069503596490257
10
37.02914713035274
20
-30.069503596490257
10
37.02914713035274
20
-33.369503596490262
10
22.029146683317897
20
-33.369503745501859
0
LWPOLYLINE
5
111
100
AcDbEntity
8
0
100
AcDbPolyline
90
4
70
1
43
0.0
10
37.02914713035274
20
-30.069503596490257
10
37.02914713035274
20
-33.369503596490262
10
22.029147130352733
20
-33.369503596490262
10
22.029147130352733
20
-30.069503596490257
0
CIRCLE
5
112
100
AcDbEntity
8
0
100
AcDbCircle
10
82.029146683318018
20
-28.369503745501881
30
0
40
13.5
210
0
220
0
230
1
0
LWPOLYLINE
5
113
100
AcDbEntity
8
0
100
AcDbPolyline
90
6
70
1
43
0.0
10
26.483085344452792
20
49.401909613633812
10
130.48308534445277
20
49.401909613633812
42
-0.41421356237309503
10
133.4830853444528
20
46.401909613633791
10
133.4830853444528
20
29.401909613633812
10
23.483085344452796
20
29.401909613633812
10
23.483085344452796
20
46.401909613633812
42
-0.41421356237309503
0
LWPOLYLINE
5
114
100
AcDbEntity
8
0
100
AcDbPolyline
90
8
70
1
43
0.0
10
-3.7117911956815108
20
43.141156319385566
10
-3.7117911956815108
20
-64.858843680614441
42
-0.41421356237309209
10
-5.7117911956815099
20
-66.858843680614441
10
-11.711791195681512
20
-66.858843680614441
42
-0.41421356237309243
10
-13.71179119568151
20
-64.858843680614441
10
-13.71179119568151
20
43.141156319385559
42
-0.41421356237309342
10
-11.711791195681512
20
45.141156319385573
10
-5.7117911956815099
20
45.141156319385573
42
-0.41421356237309209
0
CIRCLE
5
115
100
AcDbEntity
8
0
100
AcDbCircle
10
-8.7117911956815082
20
-53.608843680614449
30
0
40
1.5000000000000002
210
0
220
0
230
1
0
CIRCLE
5
116
100
AcDbEntity
8
0
100
AcDbCircle
10
-8.7117911956815082
20
-61.608843680614456
30
0
40
1.5000000000000002
210
0
220
0
230
1
0
LWPOLYLINE
5
117
100
AcDbEntity
8
0
100
AcDbPolyline
90
4
70
1
43
0.0
10
33.483085344452796
20
42.262776717380895
10
123.4830853444528
20
42.262776717380895
10
123.4830853444528
20
39.312776717380899
10
33.483085344452796
20
39.312776717380899
0
CIRCLE
5
118
100
AcDbEntity
8
0
100
AcDbCircle
10
116.77914668331798
20
-68.119503745501902
30
0
40
1
210
0
220
0
230
1
0
CIRCLE
5
119
100
AcDbEntity
8
0
100
AcDbCircle
10
116.77914668331796
20
-50.619503745501902
30
0
40
1
210
0
220
0
230
1
0
CIRCLE
5
120
100
AcDbEntity
8
0
100
AcDbCircle
10
47.279146683317926
20
-50.619503745501895
30
0
40
1
210
0
220
0
230
1
0
CIRCLE
5
121
100
AcDbEntity
8
0
100
AcDbCircle
10
47.279146683317926
20
-68.119503745501902
30
0
40
1
210
0
220
0
230
1
0
CIRCLE
5
122
100
AcDbEntity
8
0
100
AcDbCircle
10
120.5769257829344
20
-6.2482203245278356
30
0
40
1.5000000000000002
210
0
220
0
230
1
0
CIRCLE
5
123
100
AcDbEntity
8
0
100
AcDbCircle
10
44.076925782935142
20
-6.248220324528118
30
0
40
1.5000000000000002
210
0
220
0
230
1
0
LWPOLYLINE
5
124
100
AcDbEntity
8
0
100
AcDbPolyline
90
4
70
1
43
0.0
10
155.75186064247168
20
49.401909613633812
10
182.00186064247168
20
49.401909613633812
10
182.00186064247168
20
-30.598090386366188
10
155.75186064247168
20
-30.598090386366188
0
LWPOLYLINE
5
125
100
AcDbEntity
8
0
100
AcDbPolyline
90
4
70
1
43
0.0
10
135.71631380653005
20
-43.275538836836972
10
145.71631380653005
20
-43.275538836836972
10
145.71631380653005
20
-63.275538836836972
10
135.71631380653005
20
-63.275538836836972
0
LWPOLYLINE
5
126
100
AcDbEntity
8
0
100
AcDbPolyline
90
4
70
1
43
0.0
10
159.91294103786214
20
-63.275538836836972
10
149.91294103786214
20
-63.275538836836972
10
149.91294103786214
20
-43.275538836836972
10
159.91294103786214
20
-43.275538836836972
0
LWPOLYLINE
5
127
100
AcDbEntity
8
0
100
AcDbPolyline
90
4
70
1
43
0.0
10
178.41305836065692
20
-43.275538836836972
10
188.41305836065692
20
-43.275538836836972
10
188.41305836065692
20
-63.275538836836972
10
178.41305836065692
20
-63.275538836836972
0
LWPOLYLINE
5
128
100
AcDbEntity
8
0
100
AcDbPolyline
90
4
70
1
43
0.0
10
164.21643112932486
20
-43.275538836836972
10
174.21643112932486
20
-43.275538836836972
10
174.21643112932486
20
-63.275538836836972
10
164.21643112932486
20
-63.275538836836972
0
ENDSEC
0
SECTION
2
OBJECTS
0
DICTIONARY
5
C
100
AcDbDictionary
3
ACAD_GROUP
350
D
3
ACAD_MLINESTYLE
350
17
0
DICTIONARY
5
D
100
AcDbDictionary
0
DICTIONARY
5
1A
330
C
100
AcDbDictionary
0
DICTIONARY
5
17
100
AcDbDictionary
0
ENDSEC
0
EOF
